
    <svg width="800" height="400" xmlns="http://www.w3.org/2000/svg">
        <!-- Background -->
        <rect width="800" height="400" fill="white"/>
        
        <!-- Grid -->
        <g stroke="#f0f0f0" stroke-width="1">
            
                <line x1="50" y1="50" 
                      x2="50" y2="350"/>
                <line x1="50" y1="50" 
                      x2="750" y2="50"/>
            
                <line x1="120" y1="50" 
                      x2="120" y2="350"/>
                <line x1="50" y1="80" 
                      x2="750" y2="80"/>
            
                <line x1="190" y1="50" 
                      x2="190" y2="350"/>
                <line x1="50" y1="110" 
                      x2="750" y2="110"/>
            
                <line x1="260" y1="50" 
                      x2="260" y2="350"/>
                <line x1="50" y1="140" 
                      x2="750" y2="140"/>
            
                <line x1="330" y1="50" 
                      x2="330" y2="350"/>
                <line x1="50" y1="170" 
                      x2="750" y2="170"/>
            
                <line x1="400" y1="50" 
                      x2="400" y2="350"/>
                <line x1="50" y1="200" 
                      x2="750" y2="200"/>
            
                <line x1="470" y1="50" 
                      x2="470" y2="350"/>
                <line x1="50" y1="230" 
                      x2="750" y2="230"/>
            
                <line x1="540" y1="50" 
                      x2="540" y2="350"/>
                <line x1="50" y1="260" 
                      x2="750" y2="260"/>
            
                <line x1="610" y1="50" 
                      x2="610" y2="350"/>
                <line x1="50" y1="290" 
                      x2="750" y2="290"/>
            
                <line x1="680" y1="50" 
                      x2="680" y2="350"/>
                <line x1="50" y1="320" 
                      x2="750" y2="320"/>
            
                <line x1="750" y1="50" 
                      x2="750" y2="350"/>
                <line x1="50" y1="350" 
                      x2="750" y2="350"/>
            
        </g>
        
        <!-- Candlesticks -->
        
    </svg>